<?xml version="1.0" encoding="UTF-8"?>
<svg version="1.1" viewBox="0 0 2048 1638" width="1280" height="1280" xmlns="http://www.w3.org/2000/svg">
<path transform="translate(0)" d="m0 0h2048v1638h-2048z"/>
<path transform="translate(912,42)" d="m0 0 8 8 1 41 2 16 5 12 11 17 4 8 4 18-1 3-12-15-5-6-14-4-6 1-2 5-6 14-12 38-17 64-16 64-12 50-10 46-5 28-1 11v17l3 7 8 11 14 14 8 7 7 8 7 14 4 17-1 4-10-11-7-8-13-9-11-5-7-2h-15l-11 4h-2l-1 9-15 76-7 40-2 17v21l4 13 8 9 13 6 17 3h13l22-3 16-5 3-1 2-4 2-6v-9l-4-9-6-9-9-10-15-10-6-3v-1h11l17 3 12 5 14 8 13 12 9 9 9 14 9 19 5 17-1-21-3-14-8-20-5-11 1-2 15 9 10 8 10 10 7 11 2 3-7-24-15-42-6-23-2-14v-20l4-18 7-16 10-14 11-11 14-10 16-8 21-9 29-10 17-8 11-8 10-9 7-7 5-8 3-9 1-6v-12l-3-12-5-10-11-12-10-7-10-6-16-6-17-3h-12l-12 2-15 6-14 9-10 8-6 5-8 11-6 13-4 21-5-2-6-5-6-10-3-10v-20l7-8 6-10 3-10v-12l-1-13 11-24 8-15 3-9 1-6v-13l-2-23v-18l3-13 6-11 13-18 1 4-5 23v13l7 25 10 25 6 10 6 3 15 1h28l17-2 16-5 8-4 5-5 5-10v12l-4 8-10 10-13 8-16 9-9 7-6 7-1 2v7l5 3 21 6 18 8 15 10 11 10 9 12 7 15 3 11v26l-4 17-8 17-9 12-13 13-16 11-16 9-40 20-12 8-7 6-6 10-3 11v14l3 10 6 11 14 19 16 21 14 20 12 21 8 20 5 17 2 6 7-20 7-13 9-11 11-10 19-12 2 1-10 22-5 15-2 13-1 18 5-17 8-18 7-11 9-11 8-8 13-10 16-8 9-3 14-2h10l-5 4-14 9-5 4-10 13-5 10-1 9 3 9 6 5 19 5 17 2h13l14-2 13-5 8-6 6-12 2-16-2-23-7-41-17-87v-2l-12-4h-16l-12 4-11 6-12 11-7 7-6 7-1-2 5-21 6-11 8-10 8-7 10-9 9-11 5-9 1-12-2-20-7-37-11-49-18-74-15-58-12-43-11-33-6-12-2-2-7 1-11 3-12 15-4 6-2-1 4-19 6-12 10-15 4-10 2-12 1-45 7-9h2l15 33 19 41 17 37 18 39 15 33 19 41 18 39 15 33 19 41 16 35 36 78 15 33 19 41 18 39 15 33 19 41 10 22-2 6-16 35-17 37-16 35-18 39-15 33-19 41-15 33-18 39-17 37-15 33-18 39-16 35-18 39-15 33-18 39-17 37-16 35-15 33-2 1v-255l1-1 11-1 16-8 14-10 12-11 11-13 9-14 11-20-1-13-9-62-2-18-1-16v-21l1-20-16 6-13 7-12 9-10 10-9 13-7 14-5 15-5 24h-2l-5-24-1-7v-26l2-20 1-3-16 10-12 11-8 11-8 16-4 13-3 14 1 22 6 61 1 29-2 21-4 14-8 16-25 38-13 20-13 21-14 24-4 8-1 4v8l7 27 12 39 1 11-4 11-10 16-26 36-11 16-4 8-1 3v9l5 14 9 15 8 10 9 6 11 4 6 1h21l17-4 16-8 13-9 10-9 8-6-3 9-20 45-17 38-18 40-17 37-2 1-18-39-16-35-17-37-16-35-12-28-5-16 1-10 7-14 8-12 16-23 12-18 7-14v-13l-6-16-15-33-6-16-1-5v-7l5-15 12-24 12-22 13-24 11-19 10-19 4-12 1-6v-29l-4-27-5-24-14-51-6-12-12-18-12-14-10-9-17-12-17-9-9-4 2 19v33l-5 25-2 4-7-30-6-15-7-13-8-10-6-7-13-10-19-10-11-4v48l-4 38-9 59 1 6 10 19 8 12 9 11 7 8 11 9 15 10 13 6 11 1v256l-3-4-18-39-16-35-18-39-15-33-18-39-16-35-17-37-18-39-15-33-18-39-16-35-17-37-16-35-18-39-16-35-18-39-15-33-14-31 1-7 16-34 15-33 19-41 15-33 19-41 17-37 18-39 16-35 36-78 15-33 19-41 18-39 16-35 36-78 15-33 11-24z" fill="#fff"/>
</svg>
