<svg xmlns="http://www.w3.org/2000/svg" xmlns:xlink="http://www.w3.org/1999/xlink" viewBox="0,0,256,256" width="64px" height="64px"><defs><linearGradient x1="28.719" y1="18.056" x2="28.719" y2="43.776" gradientUnits="userSpaceOnUse" id="color-1"><stop offset="0" stop-color="#ffffff" stop-opacity="0"></stop><stop offset="1" stop-color="#ffffff" stop-opacity="0"></stop></linearGradient><linearGradient x1="31.966" y1="11" x2="31.966" y2="54" gradientUnits="userSpaceOnUse" id="color-2"><stop offset="0" stop-color="#000000"></stop><stop offset="1" stop-color="#000000"></stop></linearGradient></defs><g fill="none" fill-rule="none" stroke="none" stroke-width="1" stroke-linecap="butt" stroke-linejoin="miter" stroke-miterlimit="10" stroke-dasharray="" stroke-dashoffset="0" font-family="none" font-weight="none" font-size="none" text-anchor="none" style="mix-blend-mode: normal"><g transform="scale(4,4)"><path d="M12.056,18.056v5.056h-5.056v-5.056zM46.064,36.224c2.954,0 4.374,1.307 4.374,3.693c0,3.123 -2.272,3.86 -4.882,3.86h-7.44v-7.553zM38.115,21.263h6.8c2.696,0 4.495,0.778 4.495,2.937c0,2.759 -1.738,3.537 -4.495,3.537h-6.8z" fill="url(#color-1)" fill-rule="evenodd"></path><path d="M48.588,54h-23.588c-0.553,0 -1,-0.447 -1,-1v-41c0,-0.266 0.105,-0.521 0.294,-0.708c0.187,-0.187 0.441,-0.292 0.706,-0.292c0.001,0 0.001,0 0.002,0l22.785,0.039c13.062,0 14.078,8.625 14.078,11.269c0,3.414 -1.218,5.901 -3.903,7.86c3.867,1.996 5.97,5.618 5.97,10.384c0,8.829 -7.719,13.448 -15.344,13.448zM26,52h22.588c6.427,0 13.344,-3.583 13.344,-11.448c0,-5.828 -3.503,-8.256 -6.441,-9.267c-0.374,-0.129 -0.638,-0.466 -0.671,-0.86c-0.034,-0.395 0.169,-0.772 0.516,-0.962c3.218,-1.761 4.53,-3.834 4.53,-7.155c0,-2.787 -1.177,-9.269 -12.08,-9.269l-21.786,-0.037zM45.352,45h-7.352c-0.553,0 -1,-0.447 -1,-1v-8c0,-0.553 0.447,-1 1,-1h7.89c4.901,0 5.633,3.077 5.633,4.911c-0.001,2.321 -1.071,5.089 -6.171,5.089zM39,43h6.352c3.666,0 4.171,-1.484 4.171,-3.089c0,-1.355 -0.413,-2.911 -3.633,-2.911h-6.89zM18,30h-17c-0.553,0 -1,-0.447 -1,-1v-17c0,-0.553 0.447,-1 1,-1h17c0.553,0 1,0.447 1,1v17c0,0.553 -0.447,1 -1,1zM2,28h15v-15h-15zM44.812,29h-6.812c-0.553,0 -1,-0.447 -1,-1v-7c0,-0.553 0.447,-1 1,-1h6.812c4.844,0 5.86,2.271 5.86,4.176c0.001,4.824 -4.41,4.824 -5.86,4.824zM39,27h5.812c3.229,0 3.86,-1.035 3.86,-2.824c0,-0.651 0,-2.176 -3.86,-2.176h-5.812zM12,24h-5c-0.553,0 -1,-0.447 -1,-1v-5c0,-0.553 0.447,-1 1,-1h5c0.553,0 1,0.447 1,1v5c0,0.553 -0.447,1 -1,1zM8,22h3v-3h-3z" fill="url(#color-2)" fill-rule="nonzero"></path></g></g></svg>